<svg xmlns="http://www.w3.org/2000/svg" width="70" height="70" viewBox="0 0 135 135">
    <g fill="#1E90FF" fill-rule="evenodd">
        <path d="M4.86 109.445h2.755c3.042 0 3.978.936 3.978 3.353 0 2.47-.988 3.666-3.484 3.666h-3.25v-7.02zm0 9.54h3.717c2.47 0 5.876-1.351 5.876-6.264 0-4.914-2.886-5.693-6.838-5.693H2v18.197h2.86v-6.24zM23.368 115.606h-3.432v-6.317h3.042c2.6 0 3.666 1.17 3.666 3.12 0 2.235-1.353 3.197-3.276 3.197m6.16-3.276c0-4.029-2.573-5.303-6.264-5.303h-6.161v18.197h2.833v-6.993h3.666l3.952 6.993h2.937l-4.212-7.72c1.976-1.014 3.25-2.73 3.25-5.174M36.548 117.92l2.418-6.811 2.417 6.81h-4.835zm7.409 7.305h2.91l-6.524-18.197H37.56l-6.498 18.197h2.885l1.69-4.732h6.655l1.664 4.732zM60.359 109.6v-2.573H49.076v18.197h11.543v-2.573h-8.761v-5.641h6.707v-2.574h-6.707V109.6zM70.367 122.65h-4.004V109.6h4.004c3.95 0 6.004 2.6 6.004 6.526 0 3.925-2.053 6.525-6.004 6.525m0-15.623h-6.76v18.197h6.76c5.25 0 9.02-3.354 9.02-9.1 0-5.744-3.77-9.097-9.02-9.097M82.453 125.224h2.782v-18.197h-2.782zM97.297 109.237c1.897 0 3.353.546 4.809 1.092l.286-2.6c-1.274-.623-3.223-1.065-5.095-1.065-5.226 0-9.047 3.717-9.047 9.462 0 5.745 3.82 9.463 9.072 9.463 1.847 0 3.744-.442 5.07-1.04l-.286-2.6c-1.456.546-2.912 1.066-4.757 1.066-4.003 0-6.083-2.99-6.083-6.89 0-3.898 2.08-6.888 6.03-6.888M113.006 125.224v-15.623h5.252v-2.574H105v2.574h5.225v15.623zM125.097 111.109l2.418 6.81h-4.835l2.417-6.81zm3.328 9.384l1.663 4.732H133l-6.525-18.197h-2.782l-6.499 18.196h2.885l1.691-4.731h6.655zM132 98h-10V55H92v43H82V10H52v88H42V33H12v65H2v2h130z"/>
    </g>
</svg>
