<?xml version="1.0" encoding="UTF-8" standalone="no"?>
<svg xmlns="http://www.w3.org/2000/svg" width="24" height="24" viewBox="0 0 24 24">
<path
        fill="#1e90ff"
        d="M11.5 3l-10 2v14l10 2V3zm2 2v2h2v2h-2v2h2v2h-2v2h2v2h-2v2h7a1 1 0 0 0 1-1V6a1 1 0 0 0-1-1h-7zm4 2h2v2h-2V7zM3.676 8.297h1.777l.924 2.215c.075.18.131.39.19.629h.025c.033-.143.1-.362.201-.647l1.03-2.197h1.62l-1.935 3.67L9.5 15.703H7.771L6.658 13.29a2.053 2.053 0 0 1-.133-.494H6.51a5.91 5.91 0 0 1-.15.514l-1.124 2.394H3.5l2.06-3.707-1.884-3.7zM17.5 11h2v2h-2v-2zm0 4h2v2h-2v-2z"
/>
</svg>
